<svg xmlns="http://www.w3.org/2000/svg" width="56" height="56" viewBox="0 0 56 56">
  <path d="M10.7368 44.9748C8.94048 43.1785 8.94048 40.2661 10.7368 38.4698L21.2117 27.9949C23.008 26.1986 25.9204 26.1986 27.7167 27.9949C29.513 29.7912 29.513 32.7036 27.7167 34.4999L17.2418 44.9748C15.4455 46.7711 12.5331 46.7711 10.7368 44.9748Z" fill="black"/>
  <path d="M24.6244 50.5596C22.8281 48.7633 22.8281 45.8509 24.6244 44.0546L44.0157 24.6633C45.812 22.867 48.7244 22.867 50.5207 24.6633C52.3171 26.4596 52.317 29.372 50.5207 31.1683L31.1294 50.5596C29.3331 52.3559 26.4207 52.3559 24.6244 50.5596Z" fill="black"/>
  <path d="M5.2525 31.1488C3.45619 29.3525 3.45619 26.4401 5.2525 24.6438L24.6438 5.2525C26.4401 3.45619 29.3525 3.45619 31.1488 5.25249C32.9451 7.0488 32.9451 9.96119 31.1488 11.7575L11.7575 31.1488C9.96119 32.9451 7.0488 32.9451 5.2525 31.1488Z" fill="black"/>
</svg>
